<mxfile host="app.diagrams.net" modified="2024-02-28T15:44:41.870Z" agent="Mozilla/5.0 (Windows NT 10.0; Win64; x64) AppleWebKit/537.36 (KHTML, like Gecko) Chrome/122.0.0.0 Safari/537.36" etag="N10VQmtbWe50ECq9-zg8" version="23.1.5" type="device">
  <diagram id="RX8j35DpNfyJVcPfTA0C" name="Page-1">
    <mxGraphModel dx="882" dy="578" grid="1" gridSize="10" guides="1" tooltips="1" connect="1" arrows="1" fold="1" page="1" pageScale="1" pageWidth="850" pageHeight="1100" math="0" shadow="0">
      <root>
        <mxCell id="0" />
        <mxCell id="1" parent="0" />
        <mxCell id="aENQTrR-qnFauV78CBZX-7" style="edgeStyle=orthogonalEdgeStyle;rounded=0;orthogonalLoop=1;jettySize=auto;html=1;exitX=1;exitY=0.5;exitDx=0;exitDy=0;entryX=0;entryY=0.5;entryDx=0;entryDy=0;" edge="1" parent="1" source="aENQTrR-qnFauV78CBZX-1" target="aENQTrR-qnFauV78CBZX-3">
          <mxGeometry relative="1" as="geometry" />
        </mxCell>
        <mxCell id="aENQTrR-qnFauV78CBZX-8" style="edgeStyle=orthogonalEdgeStyle;rounded=0;orthogonalLoop=1;jettySize=auto;html=1;exitX=1;exitY=0.75;exitDx=0;exitDy=0;" edge="1" parent="1" source="aENQTrR-qnFauV78CBZX-1" target="aENQTrR-qnFauV78CBZX-4">
          <mxGeometry relative="1" as="geometry" />
        </mxCell>
        <mxCell id="aENQTrR-qnFauV78CBZX-1" value="Client" style="rounded=1;whiteSpace=wrap;html=1;" vertex="1" parent="1">
          <mxGeometry x="80" y="80" width="120" height="60" as="geometry" />
        </mxCell>
        <mxCell id="aENQTrR-qnFauV78CBZX-6" style="edgeStyle=orthogonalEdgeStyle;rounded=0;orthogonalLoop=1;jettySize=auto;html=1;exitX=0.5;exitY=1;exitDx=0;exitDy=0;entryX=0.5;entryY=0;entryDx=0;entryDy=0;" edge="1" parent="1" source="aENQTrR-qnFauV78CBZX-3" target="aENQTrR-qnFauV78CBZX-5">
          <mxGeometry relative="1" as="geometry" />
        </mxCell>
        <mxCell id="aENQTrR-qnFauV78CBZX-3" value="Memory cache" style="rounded=1;whiteSpace=wrap;html=1;" vertex="1" parent="1">
          <mxGeometry x="520" y="80" width="120" height="60" as="geometry" />
        </mxCell>
        <mxCell id="aENQTrR-qnFauV78CBZX-4" value="Commit log" style="rounded=1;whiteSpace=wrap;html=1;" vertex="1" parent="1">
          <mxGeometry x="280" y="200" width="120" height="60" as="geometry" />
        </mxCell>
        <mxCell id="aENQTrR-qnFauV78CBZX-5" value="SSTable" style="rounded=1;whiteSpace=wrap;html=1;" vertex="1" parent="1">
          <mxGeometry x="520" y="200" width="120" height="60" as="geometry" />
        </mxCell>
      </root>
    </mxGraphModel>
  </diagram>
</mxfile>
